<mxfile host="app.diagrams.net" modified="2024-08-05T01:19:08.288Z" agent="Mozilla/5.0 (Macintosh; Intel Mac OS X 10_15_7) AppleWebKit/537.36 (KHTML, like Gecko) Chrome/127.0.0.0 Safari/537.36" version="24.6.4" etag="86-C9iUoHPkSltgJSpKO" type="github">
  <diagram name="Page-1" id="MkQ_AtgSYpvFkPRaevOs">
    <mxGraphModel>
      <root>
        <mxCell id="0" />
        <mxCell id="1" parent="0" />
      </root>
    </mxGraphModel>
  </diagram>
</mxfile>
